<?xml version="1.0" encoding="utf-8"?>
<!-- Generator: Adobe Illustrator 22.1.0, SVG Export Plug-In . SVG Version: 6.00 Build 0)  -->
<svg version="1.1" id="Layer_1" xmlns="http://www.w3.org/2000/svg" xmlns:xlink="http://www.w3.org/1999/xlink" x="0px" y="0px"
	 viewBox="0 0 214.8 214.8" style="enable-background:new 0 0 214.8 214.8;" xml:space="preserve">
<style type="text/css">
	.st0{fill:#FFFFFF;}
</style>
<path class="st0" d="M213.8,38V13.5c0-6.9-5.6-12.5-12.5-12.5h-24.5c-6.9,0-12.5,5.6-12.5,12.5V38c0,6.9,5.6,12.5,12.5,12.5h24.5
	C208.2,50.5,213.8,44.9,213.8,38z M201.3,9.6c2.1,0,3.8,1.7,3.8,3.8V38c0,2.1-1.7,3.8-3.8,3.8h-24.5c-2.1,0-3.8-1.7-3.8-3.8V13.5
	c0-2.1,1.7-3.8,3.8-3.8L201.3,9.6L201.3,9.6z M50.4,201.3v-24.5c0-6.9-5.6-12.5-12.5-12.5H13.4c-6.9,0-12.5,5.6-12.5,12.5v24.5
	c0,6.9,5.6,12.5,12.5,12.5h24.5C44.8,213.8,50.4,208.2,50.4,201.3z M37.9,173c2.1,0,3.8,1.7,3.8,3.8v24.5c0,2.1-1.7,3.8-3.8,3.8
	H13.4c-2.1,0-3.8-1.7-3.8-3.8v-24.5c0-2.1,1.7-3.8,3.8-3.8H37.9z M214.7,195v-93.6c0-10.8-8.8-19.7-19.7-19.7h-52.8
	c-5.1,0-9.3-4.2-9.3-9.3V19.8c0-10.8-8.8-19.7-19.7-19.7H19.7C8.9,0.1,0.1,8.9,0.1,19.8v93.6c0,10.8,8.8,19.7,19.7,19.7h52.8
	c5.1,0,9.3,4.2,9.3,9.3V195c0,10.8,8.8,19.7,19.7,19.7H195C205.9,214.7,214.7,205.9,214.7,195z M113.3,10.5c5.1,0,9.3,4.2,9.3,9.3
	v52.8c0,10.8,8.8,19.7,19.7,19.7H195c5.1,0,9.3,4.2,9.3,9.3V195c0,5.1-4.2,9.3-9.3,9.3h-93.6c-5.1,0-9.3-4.2-9.3-9.3v-52.8
	c0-10.8-8.8-19.7-19.7-19.7H19.7c-5.1,0-9.3-4.2-9.3-9.3V19.8c0-5.1,4.2-9.3,9.3-9.3C19.7,10.5,113.3,10.5,113.3,10.5z M90.1,73.8
	V36.9H75.8v35.7c0,1.6-0.2,3.2-0.6,4.6c-0.4,1.5-1,2.7-1.9,3.9c-0.9,1.1-2.1,2.1-3.5,2.7c-1.4,0.7-3.1,1-5.1,1s-3.7-0.3-5.1-1
	c-1.4-0.7-2.6-1.6-3.4-2.7c-0.9-1.1-1.5-2.4-1.9-3.9s-0.6-3-0.6-4.6V36.9H39.3v36.9c0,3.6,0.6,6.8,1.8,9.7c1.2,2.9,2.8,5.4,5,7.5
	s4.8,3.7,8,4.9c3.1,1.2,6.6,1.8,10.5,1.8c3.8,0,7.4-0.6,10.5-1.8c3.2-1.2,5.8-2.8,8.1-4.9c2.2-2.1,3.9-4.6,5.1-7.5
	C89.5,80.6,90.1,77.4,90.1,73.8z M191.5,120.2h-14.9l-9.5,39.4h-0.3l-10.6-39.4h-14.9l-10.5,39.4h-0.3l-9.4-39.4h-15.4l16.8,59.2
	h14.2l11.7-40.1h0.2l11.7,40.1h14.1L191.5,120.2z"/>
</svg>
